Coordinates
version=1
nRows=9
nColumns=24
inDegrees=yes

Units are S.I. units (second, meters, Newtons, ...)
Angles are in degrees.

endheader
time	pelvis_tilt	pelvis_list	pelvis_rotation	pelvis_tx	pelvis_ty	pelvis_tz	hip_flexion_r	hip_adduction_r	hip_rotation_r	knee_angle_r	ankle_angle_r	subtalar_angle_r	mtp_angle_r	hip_flexion_l	hip_adduction_l	hip_rotation_l	knee_angle_l	ankle_angle_l	subtalar_angle_l	mtp_angle_l	lumbar_extension	lumbar_bending	lumbar_rotation
      1.30000000	      1.55889212	     -5.20767531	     -2.07185871	      0.04032514	      1.04428539	      0.35012929	    -21.42016187	     10.32981830	     -3.49092669	     -2.78080873	      5.17424298	     -7.78084094	      0.48890830	     21.80665448	     -2.24796949	     -7.79894189	      3.90002287	     12.12713721	      7.42699599	     -2.75089215	      3.39094542	      9.52024067	      2.01675977
      1.30416667	      1.58634015	     -5.12569176	     -2.10413647	      0.04625337	      1.04406404	      0.35006798	    -21.60979670	     10.18656926	     -3.53977868	     -3.08564911	      4.85864159	     -7.72061251	      0.52760711	     21.70706319	     -2.14296628	     -7.67418004	      3.51242847	     12.36206108	      7.23087271	     -2.82530895	      3.41908457	      9.39556774	      2.10805715
      1.30833333	      1.59140834	     -5.09273278	     -2.14986728	      0.05205456	      1.04382759	      0.35002479	    -21.75685479	     10.09419054	     -3.50373470	     -3.44469203	      4.78268183	     -7.71576011	      0.53671904	     21.64234664	     -2.09960535	     -7.58128465	      3.10787889	     12.34798843	      7.19100704	     -2.84056971	      3.48171663	      9.34204454	      2.13468947
      1.31250000	      1.63983577	     -4.97758359	     -2.21816097	      0.05813816	      1.04371676	      0.34998372	    -21.95776752	      9.89778913	     -3.55722045	     -3.77382662	      4.37967147	     -7.66674099	      0.58368380	     21.46576150	     -1.97063626	     -7.47818656	      2.76763599	     12.42432891	      6.87869710	     -2.91406347	      3.50811917	      9.17851688	      2.24686132
      1.31666667	      1.72185798	     -4.89637984	     -2.26601011	      0.06411752	      1.04365684	      0.34989078	    -22.17631084	      9.74088382	     -3.59772754	     -4.13296445	      4.05704485	     -7.63805907	      0.67284260	     21.24421373	     -1.86923353	     -7.24520207	      2.45851584	     12.27671164	      6.47075587	     -3.03296946	      3.46250550	      9.07174066	      2.39206181
      1.32083333	      1.72486136	     -4.87046621	     -2.32036545	      0.07001981	      1.04349158	      0.34982810	    -22.29113787	      9.64859565	     -3.55967929	     -4.54969149	      3.99150192	     -7.64152277	      0.68450670	     21.13207275	     -1.83615499	     -7.15596849	      2.09334336	     12.23705454	      6.43353135	     -3.04558661	      3.53107395	      9.02245890	      2.41427835
      1.32500000	      1.73133660	     -4.82880714	     -2.40470100	      0.07600136	      1.04338921	      0.34979078	    -22.39450745	      9.52563903	     -3.54295755	     -5.00202580	      3.85173340	     -7.64085008	      0.69658317	     20.98173813	     -1.79429947	     -7.08599791	      1.78141999	     12.17437537	      6.37096567	     -3.05821855	      3.61668755	      8.95052846	      2.44401680
      1.32916667	      1.77719126	     -4.63544224	     -2.56430272	      0.08247691	      1.04345700	      0.34979584	    -22.55958075	      9.19978152	     -3.62393939	     -5.39194439	      3.24385842	     -7.56874695	      0.75455300	     20.68588368	     -1.60149748	     -7.13218322	      1.61370822	     11.86546513	      5.94453737	     -3.11452741	      3.66636286	      8.75233253	      2.56547112
      1.33333333	      2.00553728	     -4.55392500	     -2.57049184	      0.08841411	      1.04366728	      0.34955167	    -22.87682674	      9.03388138	     -3.71451672	     -5.84030026	      2.95383438	     -7.52176509	      1.02979320	     20.22381319	     -1.47020620	     -6.62875154	      1.48130917	     11.36932228	      4.93330369	     -3.28764850	      3.38714639	      8.61755740	      2.88365202
